<?xml version="1.0" encoding="UTF-8" standalone="no"?>
<!-- Created with Inkscape (http://www.inkscape.org/) -->

<svg
   width="400"
   height="400"
   viewBox="0 0 105.83333 105.83333"
   version="1.1"
   id="svg5"
   xml:space="preserve"
   inkscape:version="1.2.1 (9c6d41e410, 2022-07-14)"
   sodipodi:docname="minimap 4.svg"
   inkscape:export-filename="minimap 4.png"
   inkscape:export-xdpi="96"
   inkscape:export-ydpi="96"
   xmlns:inkscape="http://www.inkscape.org/namespaces/inkscape"
   xmlns:sodipodi="http://sodipodi.sourceforge.net/DTD/sodipodi-0.dtd"
   xmlns="http://www.w3.org/2000/svg"
   xmlns:svg="http://www.w3.org/2000/svg"><sodipodi:namedview
     id="namedview7"
     pagecolor="#505050"
     bordercolor="#ffffff"
     borderopacity="1"
     inkscape:showpageshadow="0"
     inkscape:pageopacity="0"
     inkscape:pagecheckerboard="1"
     inkscape:deskcolor="#505050"
     inkscape:document-units="px"
     showgrid="false"
     inkscape:zoom="1.2630206"
     inkscape:cx="224.06602"
     inkscape:cy="169.43508"
     inkscape:window-width="1920"
     inkscape:window-height="1009"
     inkscape:window-x="-8"
     inkscape:window-y="-8"
     inkscape:window-maximized="1"
     inkscape:current-layer="layer1" /><defs
     id="defs2" /><g
     inkscape:label="Warstwa 1"
     inkscape:groupmode="layer"
     id="layer1"><path
       style="fill:none;fill-rule:evenodd;stroke:#ffffff;stroke-width:8.46667;stroke-linecap:round;stroke-linejoin:round;stroke-dasharray:none;stroke-dashoffset:0;stroke-opacity:0.502392;paint-order:stroke fill markers"
       d="m 19.595989,86.591085 c 2.995353,-2.189373 9.317352,-10.873184 11.498061,-14.078562 0.944926,-1.388927 1.73513,-4.765937 2.625333,-7.272674 1.167154,-3.286605 2.460673,-5.805787 4.042512,-7.709665 2.895575,-3.485074 7.346108,-5.529733 10.150136,-5.618689 3.687205,-0.116973 9.552818,5.319628 15.475297,10.331807 4.674932,3.956382 11.326275,6.52877 15.36446,5.246846 5.608093,-1.780292 9.306843,-6.828997 12.768339,-10.909109 4.886817,-5.760158 8.411193,-10.924022 8.445443,-13.81715 0.0725,-6.124384 -2.481591,-12.806362 -8.944727,-17.304298 -5.710195,-3.973937 -10.705959,-10.639998 -17.721947,-8.941512 -1.335964,0.323421 -4.368942,2.074195 -5.314129,4.703678 -0.405985,1.129437 -0.58339,3.54585 -0.31713,4.972629 0.352952,1.891331 1.366546,2.895437 2.49562,5.199534 1.796413,3.665935 11.974962,8.772442 13.161823,12.127189 1.982421,5.603452 -0.54972,9.00101 -1.6712,10.562044 -1.356296,1.887882 -6.01034,3.358887 -9.238928,1.638179 C 62.594288,50.487313 49.782188,38.986491 44.621055,34.772706 41.237282,38.42 37.126555,43.87543 32.781111,49.417498 30.977202,51.718157 27.776487,56.70424 22.530249,60.660892 15.290238,66.121226 10.144129,69.844743 8.1966798,72.250858 4.5975096,76.69771 4.5094285,80.0519 5.0129779,82.268328 c 1.6625752,7.318006 9.3951561,8.11468 14.5830111,4.322757 z"
       id="path910"
       sodipodi:nodetypes="ssssssssssssssssscsssss" /><g
       id="g1281"
       transform="matrix(0.34320882,-0.40508854,0.40508854,0.34320882,48.407038,71.615166)"
       style="opacity:0.62306;stroke-width:1.88347"><rect
         style="fill:#ffffff;fill-opacity:1;fill-rule:evenodd;stroke:none;stroke-width:15.9468;stroke-linecap:round;stroke-linejoin:round;stroke-dasharray:none;stroke-dashoffset:0;stroke-opacity:0.502392;paint-order:stroke fill markers"
         id="rect1167"
         width="2.6458333"
         height="2.6458333"
         x="110.43456"
         y="7.4339566" /><rect
         style="fill:#000000;fill-opacity:1;fill-rule:evenodd;stroke:none;stroke-width:15.9468;stroke-linecap:round;stroke-linejoin:round;stroke-dasharray:none;stroke-dashoffset:0;stroke-opacity:0.502392;paint-order:stroke fill markers"
         id="rect1221"
         width="2.6458333"
         height="2.6458333"
         x="110.43456"
         y="9.9577389" /><rect
         style="fill:#000000;fill-opacity:1;fill-rule:evenodd;stroke:none;stroke-width:15.9468;stroke-linecap:round;stroke-linejoin:round;stroke-dasharray:none;stroke-dashoffset:0;stroke-opacity:0.502392;paint-order:stroke fill markers"
         id="rect1223"
         width="2.6458333"
         height="2.6458333"
         x="113.0804"
         y="7.4339566" /><rect
         style="fill:#ffffff;fill-opacity:1;fill-rule:evenodd;stroke:none;stroke-width:15.9468;stroke-linecap:round;stroke-linejoin:round;stroke-dasharray:none;stroke-dashoffset:0;stroke-opacity:0.502392;paint-order:stroke fill markers"
         id="rect1225"
         width="2.6458333"
         height="2.6458333"
         x="113.0804"
         y="9.9577389" /><rect
         style="fill:#ffffff;fill-opacity:1;fill-rule:evenodd;stroke:none;stroke-width:15.9468;stroke-linecap:round;stroke-linejoin:round;stroke-dasharray:none;stroke-dashoffset:0;stroke-opacity:0.502392;paint-order:stroke fill markers"
         id="rect1227"
         width="2.6458333"
         height="2.6458333"
         x="115.72623"
         y="7.4339566" /><rect
         style="fill:#000000;fill-opacity:1;fill-rule:evenodd;stroke:none;stroke-width:15.9468;stroke-linecap:round;stroke-linejoin:round;stroke-dasharray:none;stroke-dashoffset:0;stroke-opacity:0.502392;paint-order:stroke fill markers"
         id="rect1229"
         width="2.6458333"
         height="2.6458333"
         x="115.72623"
         y="9.9577389" /><rect
         style="fill:#000000;fill-opacity:1;fill-rule:evenodd;stroke:none;stroke-width:15.9468;stroke-linecap:round;stroke-linejoin:round;stroke-dasharray:none;stroke-dashoffset:0;stroke-opacity:0.502392;paint-order:stroke fill markers"
         id="rect1231"
         width="2.6458333"
         height="2.6458333"
         x="118.37208"
         y="7.4339566" /><rect
         style="fill:#ffffff;fill-opacity:1;fill-rule:evenodd;stroke:none;stroke-width:15.9468;stroke-linecap:round;stroke-linejoin:round;stroke-dasharray:none;stroke-dashoffset:0;stroke-opacity:0.502392;paint-order:stroke fill markers"
         id="rect1233"
         width="2.6458333"
         height="2.6458333"
         x="118.37208"
         y="9.9577389" /><rect
         style="fill:#ffffff;fill-opacity:1;fill-rule:evenodd;stroke:none;stroke-width:15.9468;stroke-linecap:round;stroke-linejoin:round;stroke-dasharray:none;stroke-dashoffset:0;stroke-opacity:0.502392;paint-order:stroke fill markers"
         id="rect1261"
         width="2.6458333"
         height="2.6458333"
         x="121.01789"
         y="7.4339566" /><rect
         style="fill:#000000;fill-opacity:1;fill-rule:evenodd;stroke:none;stroke-width:15.9468;stroke-linecap:round;stroke-linejoin:round;stroke-dasharray:none;stroke-dashoffset:0;stroke-opacity:0.502392;paint-order:stroke fill markers"
         id="rect1263"
         width="2.6458333"
         height="2.6458333"
         x="121.01789"
         y="9.9577389" /><rect
         style="fill:#000000;fill-opacity:1;fill-rule:evenodd;stroke:none;stroke-width:15.9468;stroke-linecap:round;stroke-linejoin:round;stroke-dasharray:none;stroke-dashoffset:0;stroke-opacity:0.502392;paint-order:stroke fill markers"
         id="rect1265"
         width="2.6458333"
         height="2.6458333"
         x="123.66374"
         y="7.4339566" /><rect
         style="fill:#ffffff;fill-opacity:1;fill-rule:evenodd;stroke:none;stroke-width:15.9468;stroke-linecap:round;stroke-linejoin:round;stroke-dasharray:none;stroke-dashoffset:0;stroke-opacity:0.502392;paint-order:stroke fill markers"
         id="rect1267"
         width="2.6458333"
         height="2.6458333"
         x="123.66374"
         y="9.9577389" /></g></g></svg>
