<?xml version="1.0" encoding="UTF-8" standalone="no"?>
<!-- Created with Inkscape (http://www.inkscape.org/) -->

<svg
   width="400"
   height="400"
   viewBox="0 0 105.83333 105.83333"
   version="1.1"
   id="svg5"
   xml:space="preserve"
   inkscape:version="1.4.2 (ebf0e940d0, 2025-05-08)"
   sodipodi:docname="minimap city.svg"
   inkscape:export-filename="minimap city.png"
   inkscape:export-xdpi="96"
   inkscape:export-ydpi="96"
   xmlns:inkscape="http://www.inkscape.org/namespaces/inkscape"
   xmlns:sodipodi="http://sodipodi.sourceforge.net/DTD/sodipodi-0.dtd"
   xmlns="http://www.w3.org/2000/svg"
   xmlns:svg="http://www.w3.org/2000/svg"><sodipodi:namedview
     id="namedview7"
     pagecolor="#505050"
     bordercolor="#ffffff"
     borderopacity="1"
     inkscape:showpageshadow="0"
     inkscape:pageopacity="0"
     inkscape:pagecheckerboard="1"
     inkscape:deskcolor="#505050"
     inkscape:document-units="px"
     showgrid="false"
     inkscape:zoom="1.7898787"
     inkscape:cx="159.22866"
     inkscape:cy="204.48313"
     inkscape:window-width="1920"
     inkscape:window-height="1008"
     inkscape:window-x="0"
     inkscape:window-y="0"
     inkscape:window-maximized="1"
     inkscape:current-layer="layer1" /><defs
     id="defs2" /><g
     inkscape:label="Warstwa 1"
     inkscape:groupmode="layer"
     id="layer1"><path
       style="fill:none;fill-rule:evenodd;stroke:#ffffff;stroke-width:8.46667;stroke-linecap:butt;stroke-linejoin:round;stroke-dasharray:none;stroke-dashoffset:0;stroke-opacity:0.502392;paint-order:stroke fill markers"
       d="m 16.334662,36.946161 c 18.323219,-0.03814 0.370844,-2.371353 13.212362,-2.333275 4.082405,0.0121 24.67013,5.864435 22.151314,-3.535915 -0.234544,-0.87533 -8.860308,-3.857594 -15.690074,-4.565056 -3.159621,-0.32729 -5.220567,-1.059917 -7.005278,0.740702 m -1.032927,13.858437 c 0.412784,9.002329 -0.05091,23.532517 -0.0358,28.078834 M 14.311774,36.627096 H 7.1582779 v 24.443937 c 0.6613451,5.210061 3.6678131,8.965978 4.9902301,10.451404 2.823943,3.172039 6.391574,4.114977 9.73219,4.16518 0.811388,0.01219 0,0 2.163152,0.05608 l 2.333357,-2.004954 c 6.751558,-0.038 5.391119,-0.03695 7.341086,-0.038 m 16.969219,15.410265 c 9.375264,0.07246 9.530058,-1.095239 9.530058,-9.565784 m 0.173156,-6.074716 c 0,-7.054843 -0.222219,-9.602529 9.796554,-9.602529 m 4.813555,-0.261815 c 6.642863,0 17.167669,0.06926 18.357635,-1.120706 1.139916,-1.139916 0.924657,-18.538898 0.907006,-23.088322 m -0.06701,-7.389671 c 0,-15.076956 2.004136,-5.734121 2.004136,-25.0025606 C 90.13525,6.8440203 92.380748,6.8363526 80.953978,6.8363526 c -9.206548,0 8.591059,47.6451524 -18.533146,48.1339764 -15.688067,0.282725 -7.258186,18.37618 -19.770475,18.37618 m -14.694601,6.863622 c 0,8.229671 1.288108,8.871397 9.56578,8.870474"
       id="path910"
       sodipodi:nodetypes="csssccccccssccccccccscccssccc" /><g
       id="g1281"
       transform="matrix(-0.00210667,-0.53092804,0.53092804,-0.00210667,75.201436,126.46888)"
       style="opacity:0.62306;stroke-width:1.88347"><rect
         style="fill:#ffffff;fill-opacity:1;fill-rule:evenodd;stroke:none;stroke-width:15.9468;stroke-linecap:round;stroke-linejoin:round;stroke-dasharray:none;stroke-dashoffset:0;stroke-opacity:0.502392;paint-order:stroke fill markers"
         id="rect1167"
         width="2.6458333"
         height="2.6458333"
         x="110.43456"
         y="7.4339566" /><rect
         style="fill:#000000;fill-opacity:1;fill-rule:evenodd;stroke:none;stroke-width:15.9468;stroke-linecap:round;stroke-linejoin:round;stroke-dasharray:none;stroke-dashoffset:0;stroke-opacity:0.502392;paint-order:stroke fill markers"
         id="rect1221"
         width="2.6458333"
         height="2.6458333"
         x="110.43456"
         y="9.9577389" /><rect
         style="fill:#000000;fill-opacity:1;fill-rule:evenodd;stroke:none;stroke-width:15.9468;stroke-linecap:round;stroke-linejoin:round;stroke-dasharray:none;stroke-dashoffset:0;stroke-opacity:0.502392;paint-order:stroke fill markers"
         id="rect1223"
         width="2.6458333"
         height="2.6458333"
         x="113.0804"
         y="7.4339566" /><rect
         style="fill:#ffffff;fill-opacity:1;fill-rule:evenodd;stroke:none;stroke-width:15.9468;stroke-linecap:round;stroke-linejoin:round;stroke-dasharray:none;stroke-dashoffset:0;stroke-opacity:0.502392;paint-order:stroke fill markers"
         id="rect1225"
         width="2.6458333"
         height="2.6458333"
         x="113.0804"
         y="9.9577389" /><rect
         style="fill:#ffffff;fill-opacity:1;fill-rule:evenodd;stroke:none;stroke-width:15.9468;stroke-linecap:round;stroke-linejoin:round;stroke-dasharray:none;stroke-dashoffset:0;stroke-opacity:0.502392;paint-order:stroke fill markers"
         id="rect1227"
         width="2.6458333"
         height="2.6458333"
         x="115.72623"
         y="7.4339566" /><rect
         style="fill:#000000;fill-opacity:1;fill-rule:evenodd;stroke:none;stroke-width:15.9468;stroke-linecap:round;stroke-linejoin:round;stroke-dasharray:none;stroke-dashoffset:0;stroke-opacity:0.502392;paint-order:stroke fill markers"
         id="rect1229"
         width="2.6458333"
         height="2.6458333"
         x="115.72623"
         y="9.9577389" /><rect
         style="fill:#000000;fill-opacity:1;fill-rule:evenodd;stroke:none;stroke-width:15.9468;stroke-linecap:round;stroke-linejoin:round;stroke-dasharray:none;stroke-dashoffset:0;stroke-opacity:0.502392;paint-order:stroke fill markers"
         id="rect1231"
         width="2.6458333"
         height="2.6458333"
         x="118.37208"
         y="7.4339566" /><rect
         style="fill:#ffffff;fill-opacity:1;fill-rule:evenodd;stroke:none;stroke-width:15.9468;stroke-linecap:round;stroke-linejoin:round;stroke-dasharray:none;stroke-dashoffset:0;stroke-opacity:0.502392;paint-order:stroke fill markers"
         id="rect1233"
         width="2.6458333"
         height="2.6458333"
         x="118.37208"
         y="9.9577389" /><rect
         style="fill:#ffffff;fill-opacity:1;fill-rule:evenodd;stroke:none;stroke-width:15.9468;stroke-linecap:round;stroke-linejoin:round;stroke-dasharray:none;stroke-dashoffset:0;stroke-opacity:0.502392;paint-order:stroke fill markers"
         id="rect1261"
         width="2.6458333"
         height="2.6458333"
         x="121.01789"
         y="7.4339566" /><rect
         style="fill:#000000;fill-opacity:1;fill-rule:evenodd;stroke:none;stroke-width:15.9468;stroke-linecap:round;stroke-linejoin:round;stroke-dasharray:none;stroke-dashoffset:0;stroke-opacity:0.502392;paint-order:stroke fill markers"
         id="rect1263"
         width="2.6458333"
         height="2.6458333"
         x="121.01789"
         y="9.9577389" /><rect
         style="fill:#000000;fill-opacity:1;fill-rule:evenodd;stroke:none;stroke-width:15.9468;stroke-linecap:round;stroke-linejoin:round;stroke-dasharray:none;stroke-dashoffset:0;stroke-opacity:0.502392;paint-order:stroke fill markers"
         id="rect1265"
         width="2.6458333"
         height="2.6458333"
         x="123.66374"
         y="7.4339566" /><rect
         style="fill:#ffffff;fill-opacity:1;fill-rule:evenodd;stroke:none;stroke-width:15.9468;stroke-linecap:round;stroke-linejoin:round;stroke-dasharray:none;stroke-dashoffset:0;stroke-opacity:0.502392;paint-order:stroke fill markers"
         id="rect1267"
         width="2.6458333"
         height="2.6458333"
         x="123.66374"
         y="9.9577389" /></g><rect
       style="fill:#ffffff;fill-opacity:0.501961;stroke-width:0.79375;stroke-linecap:round;stroke-linejoin:round"
       id="rect1"
       width="5.8383999"
       height="8.4181576"
       x="35.166176"
       y="69.415863" /><path
       style="fill:#ffffff;fill-opacity:0.501961;stroke-width:0.79375;stroke-linecap:round;stroke-linejoin:round"
       d="m 25.99176,24.267088 c -1.842553,1.731665 -2.057418,3.887549 -2.176537,5.897161 l 8.232913,0.101994 z"
       id="path1"
       sodipodi:nodetypes="cccc" /><path
       style="fill:#ffffff;fill-opacity:0.501961;stroke-width:0.79375;stroke-linecap:round;stroke-linejoin:round"
       d="m 23.734156,41.306503 8.464722,-0.389095 -0.04297,-1.390333 c -1.135424,-0.304237 -2.376049,-0.487076 -3.615156,-0.457439 -1.241925,1.403121 -2.272011,1.765881 -4.81049,2.099535 z"
       id="path2"
       sodipodi:nodetypes="cccccc" /></g></svg>
